<svg xmlns="http://www.w3.org/2000/svg" xmlns:xlink="http://www.w3.org/1999/xlink" version="1.1" id="Layer_1" x="0px" y="0px" viewBox="-528 708 82 84.9" style="enable-background:new -528 708 82 84.9;" xml:space="preserve">
<style type="text/css">
	.st0{clip-path:url(#SVGID_2_);}
	.st1{fill:#282829;}
</style>
<g>
	<g>
		<defs>
			<rect id="SVGID_1_" x="-528" y="708" width="82" height="84.9"/>
		</defs>
		<clipPath id="SVGID_2_">
			<use xlink:href="#SVGID_1_" style="overflow:visible;"/>
		</clipPath>
		<g class="st0">
			<path class="st1" d="M-527.9,708.1c21.2-0.6,40.1,17.6,41,39.6c0.8-10.8,4.8-20.2,12.6-27.9c7.7-7.7,17.2-11.6,28.3-11.8v1.1     c0,13.8,0.3,27.7-0.1,41.5c-0.4,17.9-8.5,31.3-24.9,38.8c-17.8,8.2-38.7,1.6-49.7-15.1c-4.6-6.9-7.1-15-7.2-23.3     c-0.1-14.1,0-28.2,0-42.3C-528,708.6-527.9,708.4-527.9,708.1z"/>
		</g>
	</g>
</g>
</svg>